<svg width="124" height="43" viewBox="20.8 30.92 124.23 43.08" fill="none" xmlns="http://www.w3.org/2000/svg">
  <path d="M34.99 61.58L21.43 61.58Q20.80 61.58 20.80 61.12L20.80 61.12Q20.80 60.74 21.34 60.61L21.34 60.61L22.31 60.45Q23.19 60.28 23.46 59.98Q23.74 59.69 23.74 58.81L23.74 58.81L23.74 34.11Q23.74 33.23 23.46 32.94Q23.19 32.64 22.31 32.47L22.31 32.47L21.34 32.31Q20.80 32.18 20.80 31.80L20.80 31.80Q20.80 31.34 21.43 31.34L21.43 31.34L29.11 31.34Q29.74 31.34 29.74 31.84L29.74 31.84Q29.74 32.22 29.28 32.31L29.28 32.31L28.15 32.47Q27.27 32.60 26.99 32.94Q26.72 33.27 26.72 34.15L26.72 34.15L26.72 57.67Q26.72 59.19 27.58 59.86Q28.44 60.53 29.74 60.53L29.74 60.53Q30.71 60.53 31.74 60.13Q32.77 59.73 33.61 58.62Q34.45 57.51 34.87 55.36L34.87 55.36L35.41 52.55Q35.54 52.00 36.04 52.00L36.04 52.00Q36.63 52.00 36.55 52.72L36.55 52.72L36.04 60.61Q35.96 61.58 34.99 61.58L34.99 61.58ZM47.89 61.96L47.89 61.96Q45.62 61.96 43.88 60.89Q42.13 59.82 41.17 57.91Q40.20 55.99 40.20 53.52L40.20 53.52L40.20 34.11Q40.20 33.23 39.93 32.94Q39.66 32.64 38.77 32.47L38.77 32.47L37.81 32.31Q37.26 32.18 37.26 31.80L37.26 31.80Q37.26 31.34 37.89 31.34L37.89 31.34L45.58 31.34Q46.21 31.34 46.21 31.84L46.21 31.84Q46.21 32.22 45.75 32.31L45.75 32.31L44.61 32.47Q43.77 32.60 43.48 32.94Q43.18 33.27 43.18 34.15L43.18 34.15L43.18 53.56Q43.18 56.75 44.61 58.51Q46.04 60.28 48.60 60.28L48.60 60.28Q51.21 60.28 52.63 58.51Q54.06 56.75 54.06 53.56L54.06 53.56L54.06 34.99Q54.06 32.73 52.63 32.47L52.63 32.47L51.50 32.31Q51.04 32.22 51.04 31.84L51.04 31.84Q51.04 31.34 51.67 31.34L51.67 31.34L57.72 31.34Q58.35 31.34 58.35 31.80L58.35 31.80Q58.35 32.18 57.80 32.31L57.80 32.31L56.83 32.47Q55.41 32.73 55.41 34.95L55.41 34.95L55.41 53.52Q55.41 57.34 53.35 59.65Q51.29 61.96 47.89 61.96ZM71.66 61.16L71.66 61.16Q71.49 61.16 71.28 61.03Q71.07 60.91 70.99 60.49L70.99 60.49L64.65 34.74Q64.60 34.45 64.39 34.47Q64.18 34.49 64.18 34.78L64.18 34.78L63.34 57.97Q63.30 59.14 63.72 59.75Q64.14 60.36 65.19 60.53L65.19 60.53L65.74 60.61Q66.28 60.66 66.28 61.12L66.28 61.12Q66.28 61.58 65.65 61.58L65.65 61.58L59.65 61.58Q59.02 61.58 59.02 61.12L59.02 61.12Q59.02 60.66 59.56 60.61L59.56 60.61L60.11 60.53Q61.20 60.36 61.60 59.75Q62 59.14 62.04 57.97L62.04 57.97L62.88 34.11Q62.92 33.23 62.63 32.94Q62.34 32.64 61.37 32.47L61.37 32.47L60.40 32.31Q59.86 32.18 59.86 31.80L59.86 31.80Q59.86 31.34 60.49 31.34L60.49 31.34L65.53 31.34Q66.83 31.34 67.12 32.60L67.12 32.60L72.21 53.56Q72.29 53.85 72.48 53.85Q72.67 53.85 72.71 53.56L72.71 53.56L78.00 32.39Q78.25 31.34 79.35 31.34L79.35 31.34L84.30 31.34Q84.93 31.34 84.93 31.80L84.93 31.80Q84.93 32.18 84.39 32.31L84.39 32.31L83.42 32.47Q82.54 32.64 82.24 32.94Q81.95 33.23 81.99 34.11L81.99 34.11L82.83 58.81Q82.87 59.69 83.13 59.98Q83.38 60.28 84.26 60.45L84.26 60.45L85.23 60.61Q85.77 60.74 85.77 61.12L85.77 61.12Q85.77 61.58 85.14 61.58L85.14 61.58L77.54 61.58Q76.91 61.58 76.91 61.12L76.91 61.12Q76.91 60.74 77.46 60.61L77.46 60.61L78.42 60.45Q79.30 60.28 79.60 59.98Q79.89 59.69 79.85 58.81L79.85 58.81L79.14 34.78Q79.14 34.49 78.95 34.47Q78.76 34.45 78.67 34.70L78.67 34.70L72.29 60.49Q72.21 60.91 72.02 61.03Q71.83 61.16 71.66 61.16ZM91.69 61.58L85.81 61.58Q85.18 61.58 85.18 61.16L85.18 61.16Q85.18 60.74 85.77 60.61L85.77 60.61L86.40 60.49Q87.24 60.32 87.66 59.67Q88.08 59.02 88.38 57.84L88.38 57.84L94.89 31.59Q94.97 31.17 95.16 31.05Q95.35 30.92 95.52 30.92L95.52 30.92Q95.73 30.92 95.91 31.05Q96.10 31.17 96.19 31.59L96.19 31.59L102.82 58.22Q103.12 59.40 103.50 59.86Q103.87 60.32 104.67 60.49L104.67 60.49L105.30 60.61Q105.89 60.74 105.89 61.16L105.89 61.16Q105.89 61.58 105.26 61.58L105.26 61.58L98.08 61.58Q97.49 61.58 97.49 61.12L97.49 61.12Q97.49 60.66 98.20 60.61L98.20 60.61L99.00 60.53Q99.72 60.45 99.91 60.07Q100.09 59.69 99.88 58.77L99.88 58.77L98.29 52.26Q98.04 51.16 96.90 51.16L96.90 51.16L92.49 51.16Q91.40 51.16 91.11 52.26L91.11 52.26L89.68 57.88Q89.05 60.28 90.94 60.53L90.94 60.53L91.57 60.61Q92.28 60.74 92.28 61.12L92.28 61.12Q92.28 61.58 91.69 61.58L91.69 61.58ZM92.37 49.90L92.37 49.90L96.99 49.90Q97.66 49.90 97.53 49.19L97.53 49.19L94.84 37.93L94.63 37.93L91.82 49.19Q91.69 49.90 92.37 49.90ZM123.19 61.96L123.19 61.96Q119.54 61.96 118.53 57.17L118.53 57.17L117.57 52.51Q117.10 50.24 116.54 49.06Q115.97 47.89 114.98 47.47Q114.00 47.05 112.27 47.05L112.27 47.05Q111.69 47.05 111.35 47.36Q111.01 47.68 111.01 48.14L111.01 48.14L111.01 58.64Q111.01 59.52 111.35 59.84Q111.69 60.15 112.86 60.36L112.86 60.36L114.42 60.61Q114.88 60.70 114.88 61.08L114.88 61.08Q114.88 61.58 114.25 61.58L114.25 61.58L105.72 61.58Q105.09 61.58 105.09 61.12L105.09 61.12Q105.09 60.74 105.64 60.61L105.64 60.61L106.60 60.45Q107.49 60.28 107.76 59.98Q108.03 59.69 108.03 58.81L108.03 58.81L108.03 34.11Q108.03 33.23 107.76 32.94Q107.49 32.64 106.60 32.47L106.60 32.47L105.64 32.31Q105.09 32.18 105.09 31.80L105.09 31.80Q105.09 31.34 105.72 31.34L105.72 31.34L114.25 31.34Q116.73 31.34 118.66 32.31Q120.59 33.27 121.68 34.97Q122.77 36.67 122.77 38.90L122.77 38.90Q122.77 41.55 121.18 43.67Q119.58 45.79 117.15 46.67L117.15 46.67Q116.85 46.75 116.83 46.94Q116.81 47.13 117.10 47.26L117.10 47.26Q118.45 47.89 119.22 49.02Q120.00 50.16 120.42 52.05L120.42 52.05L121.35 56.33Q121.81 58.51 122.44 59.44Q123.07 60.36 124.03 60.36L124.03 60.36Q124.37 60.36 124.64 60.26Q124.92 60.15 125.34 59.86L125.34 59.86Q125.67 59.65 125.97 59.75Q126.26 59.86 126.26 60.19L126.26 60.19Q126.26 60.91 125.34 61.43Q124.41 61.96 123.19 61.96ZM113.83 46.00L113.83 46.00Q116.68 46.00 118.15 44.09Q119.62 42.18 119.62 38.98L119.62 38.98Q119.62 35.88 117.92 34.13Q116.22 32.39 113.24 32.39L113.24 32.39Q111.01 32.39 111.01 34.07L111.01 34.07L111.01 43.69Q111.01 46.00 113.83 46.00ZM139.03 61.58L129.58 61.58Q128.95 61.58 128.95 61.12L128.95 61.12Q128.95 60.66 129.49 60.61L129.49 60.61L131.38 60.32Q132.22 60.19 132.52 59.88Q132.81 59.56 132.81 58.68L132.81 58.68L132.81 48.77Q132.81 47.85 132.39 46.96L132.39 46.96L126.22 34.03Q125.92 33.31 125.55 32.94Q125.17 32.56 124.45 32.39L124.45 32.39L124.08 32.31Q123.49 32.18 123.49 31.76L123.49 31.76Q123.49 31.34 124.12 31.34L124.12 31.34L131.30 31.34Q131.89 31.34 131.89 31.80L131.89 31.80Q131.89 32.26 131.17 32.31L131.17 32.31L130.38 32.39Q129.66 32.43 129.37 32.85Q129.07 33.27 129.49 34.15L129.49 34.15L134.66 45.16Q134.83 45.45 135.08 45.45Q135.33 45.45 135.50 45.16L135.50 45.16L140.46 35.04Q141.00 33.94 140.73 33.25Q140.46 32.56 139.49 32.43L139.49 32.43L138.57 32.31Q137.85 32.18 137.85 31.80L137.85 31.80Q137.85 31.34 138.44 31.34L138.44 31.34L144.40 31.34Q145.03 31.34 145.03 31.76L145.03 31.76Q145.03 32.18 144.45 32.31L144.45 32.31L144.03 32.39Q143.44 32.52 143.00 33.10Q142.56 33.69 141.84 35.08L141.84 35.08L136.34 46.12Q136.05 46.71 135.92 47.24Q135.79 47.76 135.79 48.43L135.79 48.43L135.79 58.68Q135.79 59.56 136.11 59.88Q136.42 60.19 137.22 60.32L137.22 60.32L139.11 60.61Q139.66 60.66 139.66 61.12L139.66 61.12Q139.66 61.58 139.03 61.58L139.03 61.58Z" fill="#ffffff"/>
  <text x="81.929" y="74" text-anchor="middle" font-family="system-ui, -apple-system, 'Segoe UI', sans-serif" font-size="9" font-weight="300" fill="rgba(255,255,255,0.8)" letter-spacing="0.3em">LABS LLC</text>
</svg>
